<svg width="1280" height="720" viewBox="0 0 1280 720" xmlns="http://www.w3.org/2000/svg" role="img" aria-labelledby="title2 desc2">
  <title id="title2">Veterans community gathering</title>
  <desc id="desc2">Abstract figures representing a veterans community in front of patriotic colored bands.</desc>
  <rect width="1280" height="720" fill="#f5f8ff"/>
  <rect width="1280" height="190" fill="#103e8a"/>
  <rect y="190" width="1280" height="120" fill="#ffffff"/>
  <rect y="310" width="1280" height="140" fill="#b22234"/>
  <rect y="450" width="1280" height="270" fill="#e8eef8"/>

  <g fill="#0d2f68">
    <circle cx="280" cy="375" r="48"/>
    <rect x="235" y="420" width="90" height="175" rx="26"/>
    <circle cx="510" cy="360" r="54"/>
    <rect x="460" y="414" width="100" height="185" rx="28"/>
    <circle cx="760" cy="365" r="52"/>
    <rect x="712" y="414" width="96" height="182" rx="28"/>
    <circle cx="995" cy="378" r="47"/>
    <rect x="952" y="422" width="86" height="170" rx="25"/>
  </g>

  <path d="M220 580C390 510 560 635 710 560C850 490 980 565 1090 540" stroke="#b22234" stroke-width="22" fill="none" stroke-linecap="round"/>
  <g fill="#ffffff" opacity="0.95">
    <circle cx="140" cy="95" r="6"/>
    <circle cx="196" cy="76" r="6"/>
    <circle cx="252" cy="95" r="6"/>
    <circle cx="1080" cy="80" r="6"/>
    <circle cx="1138" cy="97" r="6"/>
    <circle cx="1195" cy="80" r="6"/>
  </g>
</svg>
