<svg width="1280" height="720" viewBox="0 0 1280 720" xmlns="http://www.w3.org/2000/svg" role="img" aria-labelledby="title3 desc3">
  <title id="title3">Transition to career opportunities</title>
  <desc id="desc3">A symbolic path from military service to civilian opportunities in patriotic colors.</desc>
  <defs>
    <linearGradient id="base" x1="0" y1="0" x2="1" y2="1">
      <stop offset="0" stop-color="#123f8a"/>
      <stop offset="1" stop-color="#1e5abb"/>
    </linearGradient>
  </defs>

  <rect width="1280" height="720" fill="url(#base)"/>
  <circle cx="1100" cy="130" r="72" fill="#ffffff" opacity="0.95"/>
  <path d="M0 520H1280V720H0z" fill="#b22234"/>
  <path d="M0 560H1280V600H0z" fill="#ffffff" opacity="0.9"/>
  <path d="M0 630H1280V670H0z" fill="#ffffff" opacity="0.9"/>

  <path d="M180 620C360 500 500 420 680 370C860 320 1010 290 1180 250" stroke="#ffffff" stroke-width="16" fill="none" stroke-linecap="round"/>
  <g fill="#0a254f">
    <rect x="206" y="500" width="130" height="120" rx="10"/>
    <rect x="970" y="180" width="150" height="130" rx="12"/>
  </g>
  <g fill="#ffffff" opacity="0.9">
    <circle cx="368" cy="470" r="8"/>
    <circle cx="540" cy="392" r="8"/>
    <circle cx="718" cy="344" r="8"/>
    <circle cx="885" cy="309" r="8"/>
  </g>
</svg>
